<svg xmlns="http://www.w3.org/2000/svg" width="21" height="34" viewBox="0 0 21 34"><g><g><path fill="#e9862c" d="M19.627 18.476a11.293 11.293 0 0 1-3.207 4.282 11.196 11.196 0 0 1-4.46 2.261c-2.443.593-4.986.301-7.031-.993-.968 1.253-4.004 5.482-3.386 8.658a.503.503 0 0 1-.4.583.494.494 0 0 1-.592-.376c-.703-3.556 2.523-8.094 3.567-9.442a7.907 7.907 0 0 1-2.198-2.886 8.017 8.017 0 0 1-.518-4.884 8.182 8.182 0 0 1 2.732-4.55A10.328 10.328 0 0 1 6.746 9.5c7.268-3.175 8.27-8.537 8.265-8.55V.948a.516.516 0 0 1 .928-.186c5.082 7.39 5.496 13.455 3.688 17.714zM12.55 13.4l-1.537-3.552a.496.496 0 0 1 .285-.673.5.5 0 0 1 .649.278l1.196 2.764a20.564 20.564 0 0 0 2.07-8.983c-1.019 2.024-3.265 5.079-8.066 7.162a9.245 9.245 0 0 0-2.355 1.457 7.193 7.193 0 0 0-2.409 4.001 7.067 7.067 0 0 0 1.675 6.142c.235.259.49.5.763.723 3.752-3.213 6.177-6.41 7.729-9.319zm3.665-10.34c.053 2.253-.323 6.056-2.624 10.51a29.364 29.364 0 0 1-3.158 4.803l3.45-.434a.492.492 0 0 1 .547.408.506.506 0 0 1-.43.565l-4.49.567a38.745 38.745 0 0 1-3.864 3.822c1.822 1.033 4.009 1.31 6.075.766a10.12 10.12 0 0 0 4.056-2.04 10.287 10.287 0 0 0 2.914-3.911v-.003c1.552-3.65 1.322-8.778-2.476-15.053z"/></g></g></svg>