<svg xmlns="http://www.w3.org/2000/svg" width="24" height="26" viewBox="0 0 24 26"><g><g><path fill="#93b02e" d="M24 6.09v13.834a.38.38 0 0 1-.212.341l-11.625 5.697a.37.37 0 0 1-.326 0L.212 20.265A.38.38 0 0 1 0 19.924V6.089c0-.146.083-.28.212-.342L11.837.05a.377.377 0 0 1 .326 0l11.625 5.697c.13.063.212.196.212.342zM8.89 2.34l10.69 5.238c.022.01.043.025.063.04l3.12-1.529L12 .816zM5.846 3.851L16.59 9.114l2.2-1.078L8.044 2.77zm11.139 5.915v3.987l2.056-1.008V8.759zm6.265 9.918V6.696L19.79 8.39v4.594a.38.38 0 0 1-.212.342l-2.806 1.376a.371.371 0 0 1-.362-.02.382.382 0 0 1-.176-.323V9.79a.07.07 0 0 1-.005-.006L4.963 4.265 1.238 6.088l8.12 3.98a.384.384 0 0 1 .174.508.375.375 0 0 1-.5.177L1 7.001V20l10 5V12l-.366-.461a.383.383 0 0 1-.175-.509.372.372 0 0 1 .501-.176l1.04.509 2.643-1.295a.371.371 0 0 1 .5.177c.09.19.013.417-.174.51L12 12v13zm-19.23-.967a.375.375 0 0 1-.5.176l-1.707-.836a.383.383 0 0 1-.175-.508.373.373 0 0 1 .501-.178l1.706.837a.384.384 0 0 1 .175.509zm1.57-1.039a.376.376 0 0 1-.5.178l-3.274-1.604a.382.382 0 0 1-.175-.508c.09-.19.314-.27.5-.178l3.274 1.605c.187.09.265.318.175.507z"/></g></g></svg>